<?xml version="1.0" encoding="iso-8859-1"?>
<!-- Generator: Adobe Illustrator 19.0.0, SVG Export Plug-In . SVG Version: 6.00 Build 0)  -->
<svg version="1.1" id="Capa_1" xmlns="http://www.w3.org/2000/svg" xmlns:xlink="http://www.w3.org/1999/xlink" x="0px" y="0px"
	 viewBox="0 0 512 512" style="enable-background:new 0 0 512 512;" xml:space="preserve">
<g>
	<g>
		<path fill="#d7307e"  d="M316.125,330.622h-15.031v-30.063h45.094c8.301,0,15.031-6.73,15.031-15.031c0-8.301-6.73-15.031-15.031-15.031h-60.125
			c-8.301,0-15.031,6.73-15.031,15.031v60.125c0,8.301,6.73,15.031,15.031,15.031h30.063c8.288,0,15.031,6.743,15.031,15.031
			s-6.743,15.031-15.031,15.031h-30.063c-8.301,0-15.031,6.73-15.031,15.031c0,8.301,6.73,15.031,15.031,15.031h30.063
			c24.865,0,45.094-20.229,45.094-45.094S340.99,330.622,316.125,330.622z"/>
	</g>
</g>
<g>
	<g>
		<path fill="#d7307e" d="M225.937,390.747h-33.82l36.088-48.116c5.891-7.851,9.005-17.202,9.005-27.04c0-24.865-20.229-45.094-45.094-45.094
			c-24.865,0-45.094,20.229-45.094,45.094c0,8.301,6.73,15.031,15.031,15.031c8.301,0,15.031-6.73,15.031-15.031
			c0-8.288,6.743-15.031,15.031-15.031s15.031,6.743,15.031,15.031c0,3.281-1.033,6.392-2.99,9.001l-54.129,72.168
			c-3.416,4.555-3.965,10.648-1.419,15.741c2.545,5.093,7.75,8.309,13.444,8.309h63.884c8.301,0,15.031-6.73,15.031-15.031
			C240.969,397.477,234.239,390.747,225.937,390.747z"/>
	</g>
</g>
<g>
	<g>
		<path fill="#d7307e" d="M436.376,59.056h-15.031V45.094C421.345,20.229,401.115,0,376.251,0s-45.094,20.229-45.094,45.094v13.962H180.843V45.094
			C180.843,20.229,160.614,0,135.749,0S90.655,20.229,90.655,45.094v13.962H75.624c-24.865,0-45.094,20.229-45.094,45.094v362.756
			C30.53,491.771,50.759,512,75.624,512h360.752c24.865,0,45.094-20.229,45.094-45.094V104.15
			C481.47,79.285,461.241,59.056,436.376,59.056z M361.219,45.094c0-8.288,6.743-15.031,15.031-15.031s15.031,6.743,15.031,15.031
			v60.125c0,8.288-6.743,15.031-15.031,15.031s-15.031-6.743-15.031-15.031V45.094z M120.718,45.094
			c0-8.288,6.743-15.031,15.031-15.031c8.288,0,15.031,6.743,15.031,15.031v60.125c0,8.288-6.743,15.031-15.031,15.031
			s-15.031-6.743-15.031-15.031V45.094z M451.407,466.906c0,8.288-6.743,15.031-15.031,15.031H75.624
			c-8.288,0-15.031-6.743-15.031-15.031V209.369h390.814V466.906z M451.407,179.307H60.593V104.15
			c0-8.288,6.743-15.031,15.031-15.031h15.031v16.101c0,24.865,20.229,45.094,45.094,45.094c24.865,0,45.094-20.229,45.094-45.094
			V89.119h150.313v16.101c0,24.865,20.229,45.094,45.094,45.094s45.094-20.229,45.094-45.094V89.119h15.031
			c8.288,0,15.031,6.743,15.031,15.031V179.307z"/>
	</g>
</g>
<g>
</g>
<g>
</g>
<g>
</g>
<g>
</g>
<g>
</g>
<g>
</g>
<g>
</g>
<g>
</g>
<g>
</g>
<g>
</g>
<g>
</g>
<g>
</g>
<g>
</g>
<g>
</g>
<g>
</g>
</svg>
